<?xml version="1.0" encoding="UTF-8"?>
<svg width="15px" height="14px" viewBox="0 0 15 14" version="1.1" xmlns="http://www.w3.org/2000/svg" xmlns:xlink="http://www.w3.org/1999/xlink">
    <title>AB612D92-DFA5-463C-B703-94CF38E88E87</title>
    <g id="Page-1" stroke="none" stroke-width="1" fill="none" fill-rule="evenodd">
        <g id="Identity" transform="translate(-320, -59)" fill="#FFFFFF" fill-rule="nonzero">
            <g id="Log-out" transform="translate(320, 59)">
                <path d="M8.76712329,0 C8.71665465,0.021875 8.66618601,0 8.61571738,0.021875 C8.66618601,0.021875 8.72386446,0.021875 8.77433309,0.0364583333 C9.37274694,0.0947916667 9.87743331,0.590625 9.97116078,1.19583333 C9.98558039,1.26875 9.99279019,1.34166667 9.99279019,1.421875 C9.99279019,1.88854167 9.99279019,2.3625 9.99279019,2.82916667 C9.99279019,3.05520833 9.90627253,3.24479167 9.71881759,3.37604167 C9.25018025,3.71145833 8.68060562,3.4125 8.60850757,2.909375 C8.60129776,2.85104167 8.60129776,2.79270833 8.60129776,2.74166667 C8.60129776,2.32604167 8.60129776,1.91041667 8.60129776,1.49479167 C8.60129776,1.42916667 8.60129776,1.42916667 8.53640952,1.42916667 C6.20764239,1.42916667 3.87887527,1.42916667 1.55010815,1.42916667 C1.51405912,1.42916667 1.47801009,1.42916667 1.44196107,1.42916667 C1.40591204,1.42916667 1.39149243,1.44375 1.39870224,1.47291667 C1.39870224,1.4875 1.39870224,1.50208333 1.39870224,1.51666667 C1.39870224,5.140625 1.39870224,8.76458333 1.39870224,12.3885417 C1.39870224,12.4395833 1.39870224,12.490625 1.39870224,12.534375 C1.39870224,12.578125 1.41312185,12.5927083 1.45638068,12.5927083 C1.50684932,12.5927083 1.55010815,12.5927083 1.60057678,12.5927083 C3.90771449,12.5927083 6.222062,12.5927083 8.52919971,12.5927083 C8.60850757,12.5927083 8.60850757,12.5927083 8.60850757,12.5125 C8.60850757,12.0895833 8.60850757,11.6739583 8.60850757,11.2510417 C8.60850757,11.0833333 8.6517664,10.9302083 8.74549387,10.7916667 C9.00504686,10.4197917 9.55299207,10.3979167 9.84138428,10.7625 C9.94232156,10.8864583 9.99279019,11.0395833 10,11.2 C10,11.6666667 10,12.1260417 10,12.5927083 C10,13.190625 9.61788032,13.7520833 9.01946647,13.934375 C8.86806056,13.9854167 8.70944484,14 8.55082913,14 C6.56092286,14 4.56380678,14 2.5739005,14 C2.17736121,14 1.77361211,14 1.37707282,14 C0.735400144,14 0.136986301,13.475 0.0360490267,12.8333333 C0.021629416,12.7166667 0.0144196107,12.6072917 0.0144196107,12.490625 C0.0144196107,9.81458333 0.0144196107,7.13854167 0.0144196107,4.4625 C0,3.46354167 0,2.471875 0,1.48020833 C0,1.225 0.043258832,0.977083333 0.173035328,0.751041667 C0.410958904,0.342708333 0.75702956,0.0947916667 1.23287671,0.0291666667 C1.26171593,0.0291666667 1.29055516,0.021875 1.31939438,0.0145833333 C1.29055516,0 1.26171593,0.0145833333 1.24008652,0 L8.77433309,0 L8.76712329,0 Z" id="Path"></path>
                <path d="M9.10777307,5.81152594 C10.2536933,5.81152594 11.3996135,5.81152594 12.5455338,5.81152594 C12.5672918,5.81152594 12.5963024,5.81880828 12.6035551,5.81152594 C12.6108077,5.78967894 12.5817971,5.77511427 12.5672918,5.76054959 C12.0596056,5.2507861 11.5446667,4.75558727 11.0442332,4.23854144 C10.9281907,4.12202406 10.8556641,3.97637735 10.8194008,3.81616597 C10.7178635,3.37922582 11.1095072,3.02239138 11.4431295,3.00054437 C11.6607093,2.99326203 11.8420258,3.05880305 11.9943316,3.2117321 C12.3642173,3.58313122 12.7341029,3.95453034 13.1112412,4.32592946 C13.3650843,4.57352888 13.6044221,4.82841063 13.8582652,5.0687277 C14.1483716,5.34545646 14.4312253,5.63674989 14.7213317,5.92076098 C14.7721003,5.97173733 14.8301216,6.01543134 14.8736375,6.07369003 C14.9751748,6.20477207 15.0114381,6.35041879 14.9969328,6.51063017 C14.9824274,6.72910024 14.8808902,6.9038763 14.7285844,7.04952301 C14.4312253,7.32625177 14.1483716,7.6175452 13.8655178,7.90155629 C13.6624434,8.10546169 13.4593689,8.31664942 13.2490418,8.51327249 C12.8428928,8.90651861 12.4512492,9.31432941 12.0451003,9.7002932 C11.965321,9.77311656 11.9000471,9.86050459 11.7985098,9.91148094 C11.3633502,10.1445157 10.8484114,9.89691627 10.7686321,9.40899978 C10.7323689,9.18324737 10.8048954,8.97934197 10.964454,8.82641292 C11.3343396,8.46229614 11.7114779,8.09817935 12.0813636,7.73406257 C12.2481747,7.57385118 12.4149859,7.40635746 12.5817971,7.24614608 C12.5817971,7.24614608 12.5963024,7.2315814 12.5890497,7.22429907 C12.5890497,7.22429907 12.5745444,7.22429907 12.5672918,7.22429907 C12.5600391,7.22429907 12.5455338,7.22429907 12.5382811,7.22429907 C10.260946,7.22429907 7.98361082,7.22429907 5.71352833,7.22429907 C5.33639002,7.22429907 5.06804161,6.95485265 5.01002034,6.63442988 C4.9447464,6.26303076 5.20584215,5.89891397 5.57572779,5.83337295 C5.62649641,5.82609062 5.67726503,5.82609062 5.72803365,5.82609062 C6.8521959,5.82609062 7.97635816,5.82609062 9.10052042,5.82609062 L9.10777307,5.81152594 Z" id="Path"></path>
            </g>
        </g>
    </g>
</svg>